<?xml version="1.0" encoding="utf-8"?>
<!-- Generator: Adobe Illustrator 16.0.0, SVG Export Plug-In . SVG Version: 6.00 Build 0)  -->
<!DOCTYPE svg PUBLIC "-//W3C//DTD SVG 1.1//EN" "http://www.w3.org/Graphics/SVG/1.1/DTD/svg11.dtd">
<svg version="1.1" id="Layer_1" xmlns="http://www.w3.org/2000/svg" xmlns:xlink="http://www.w3.org/1999/xlink" x="0px" y="0px"
	 width="109.861px" height="146.817px" viewBox="0 0 109.861 146.817" enable-background="new 0 0 109.861 146.817"
	 xml:space="preserve">
<g fill="#00AEEF">
	<path d="M44.092,33.388c-4.209,0-7.601,3.443-7.601,7.633v1.069l0.03,22.089l0.012,1.206c0,1.628-1.324,2.971-2.976,2.971
		c-1.636,0-2.983-1.317-2.983-2.959l-0.032-15.675c0.013-1.28-1.032-2.324-2.337-2.3c-1.28,0-2.306,1.02-2.306,2.3l0.024,15.526
		c0,4.214,3.425,7.632,7.639,7.632c4.232-0.037,7.628-3.455,7.628-7.657v-1.044l-0.046-22.114v-1.193
		c-0.012-1.653,1.312-2.983,2.959-2.983c1.642,0,2.979,1.33,2.979,2.983l0.061,31.972h4.656l-0.062-31.822
		C51.724,36.781,48.312,33.363,44.092,33.388z"/>
	<path d="M28.205,44.377c1.281,0,2.337-1.069,2.324-2.337c0-1.293-1.043-2.324-2.324-2.324c-1.28,0-2.324,1.044-2.324,2.324
		C25.881,43.333,26.925,44.377,28.205,44.377z"/>
	<path d="M81.638,47.285c-1.286,0-2.33,1.045-2.33,2.325l0.024,15.662c0.02,1.653-1.304,2.996-2.958,2.996
		c-1.636,0-2.983-1.317-2.983-2.971v-1.206l-0.037-22.089v-1.045c0-4.201-3.438-7.632-7.658-7.607c-4.219,0-7.631,3.431-7.613,7.633
		l0.068,31.835h4.656L62.72,40.834c0-1.641,1.335-2.983,2.988-2.983c1.642,0,2.989,1.33,2.989,2.983v1.193l0.045,22.089
		l-0.025,1.045c0.025,4.214,3.462,7.632,7.676,7.607c4.202,0,7.613-3.431,7.613-7.646L83.963,49.61
		C83.938,48.33,82.918,47.285,81.638,47.285z"/>
	<path d="M81.613,44.24c1.281,0,2.324-1.044,2.324-2.324c0-1.281-1.043-2.325-2.324-2.325c-1.306,0-2.324,1.069-2.324,2.35
		S80.332,44.24,81.613,44.24z"/>
</g>
<path d="M54.812,0c-14.68,0.024-28.453,5.668-38.819,15.911C5.645,26.129-0.03,39.703,0,54.147
	c0.032,18.658,9.69,35.726,25.77,45.62c3.207,2.126,13.767,10.517,14.623,30.269l0.206,2.437
	c0.534,7.993,6.775,14.345,14.481,14.345c7.732,0,13.997-6.39,14.488-14.432l0.191-2.449c0.772-19.678,11.276-28.143,14.434-30.231
	c16.109-10.019,25.693-27.148,25.668-45.807C109.799,24.177,85.157,0,54.812,0z M30.211,96.679c-0.64-0.494-1.198-0.885-1.639-1.175
	C13.947,86.491,5.209,71.028,5.166,54.11C5.121,27.148,27.379,5.134,54.907,5.084c27.39,0,49.716,21.915,49.776,48.852
	c0.039,16.869-8.65,32.382-23.318,41.506c-0.448,0.296-1.02,0.698-1.679,1.215c-7.304,4.115-15.753,6.481-24.758,6.481
	C45.939,103.138,37.506,100.78,30.211,96.679z M64.729,127.298c0,0.003,0.001,0.006,0.001,0.01c0,1.777-4.318,3.218-9.646,3.218
	c-5.284,0-9.57-1.418-9.64-3.175h-0.027c-0.883-10.493-4.351-17.976-8.006-23.102c5.497,1.863,11.386,2.889,17.518,2.889
	c6.196,0,12.146-1.046,17.693-2.947C68.998,109.331,65.564,116.828,64.729,127.298z"/>
</svg>
